# xmcd CD database file
#
# Track frame offsets:
#	150
#	12567
#	26787
#	41317
#	56262
#	69395
#	83105
#	95662
#	110215
#	123415
#	140542
#
# Disc length: 2052 seconds
#
# Revision: 0
# Processed by: cddbd v1.4PL0 Copyright (c) Steve Scherf et al.
# Submitted via: CDex 1.50
#
DISCID=9508020b
DTITLE=Gary Cooley - I'll Take My Chances
DYEAR=1995
DGENRE=Country
TTITLE0=Friends Behind Bars
TTITLE1=Who Am I Foolin'
TTITLE2=I'll Take My Chances
TTITLE3=Country Boogie Baby
TTITLE4=The Way I Love You
TTITLE5=Cold Turkey
TTITLE6=Marie Laveau
TTITLE7=Call It What You Want
TTITLE8=Basic Country 101
TTITLE9=Where Are You?
TTITLE10=Texas Looks Like Tennessee
EXTD=YEAR: 1995
EXTT0=
EXTT1=
EXTT2=
EXTT3=
EXTT4=
EXTT5=
EXTT6=
EXTT7=
EXTT8=
EXTT9=
EXTT10=
PLAYORDER=
